Coordinates
version=1
nRows=6
nColumns=107
inDegrees=yes

Units are S.I. units (second, meters, Newtons, ...)
If the header above contains a line with 'inDegrees', this indicates whether rotational values are in degrees (yes) or radians (no).

endheader
time	sternoclavicular_r2	sternoclavicular_r3	unrotscap_r3	unrotscap_r2	acromioclavicular_r2	acromioclavicular_r3	acromioclavicular_r1	unrothum_r1	unrothum_r3	unrothum_r2	elv_angle	shoulder_elv	shoulder1_r2	shoulder_rot	elbow_flexion	pro_sup	deviation	flexion	proximal_distal_r1	proximal_distal_r3	cmc_flexion	cmc_abduction	mp_flexion	ip_flexion	mcp2_flexion	mcp2_abduction	pm2_flexion	md2_flexion	mcp3_flexion	mcp3_abduction	pm3_flexion	md3_flexion	mcp4_flexion	mcp4_abduction	pm4_flexion	md4_flexion	mcp5_flexion	mcp5_abduction	pm5_flexion	md5_flexion	bicpt_tx	bicpt_ty	bicpt_tz	bicpt2_tx	bicpt2_ty	bicpt2_tz	ptpt_tx	ptpt_ty	ptpt_tz	FCUpt_tx	FCUpt_ty	FCUpt_tz	EDCpt_tx	EDCpt_ty	EDCpt_tz	APLpt_tx	APLpt_ty	APLpt_tz	FPLpt_tx	FPLpt_ty	FPLpt_tz	FPLpt2_tx	FPLpt2_ty	FPLpt2_tz	PEC1pt2_tx	PEC1pt2_ty	PEC1pt2_tz	PEC1pt3_tx	PEC1pt3_ty	PEC1pt3_tz	PEC2pt2_tx	PEC2pt2_ty	PEC2pt2_tz	PEC2pt3_tx	PEC2pt3_ty	PEC2pt3_tz	PEC3pt2_tx	PEC3pt2_ty	PEC3pt2_tz	PEC3pt3_tx	PEC3pt3_ty	PEC3pt3_tz	DELT2pt2a_tx	DELT2pt2a_ty	DELT2pt2a_tz	DELT2pt2_tx	DELT2pt2_ty	DELT2pt2_tz	LAT1pt2_tx	LAT1pt2_ty	LAT1pt2_tz	LAT1pt3_tx	LAT1pt3_ty	LAT1pt3_tz	LAT2pt2_tx	LAT2pt2_ty	LAT2pt2_tz	LAT2pt3_tx	LAT2pt3_ty	LAT2pt3_tz	LAT3pt2_tx	LAT3pt2_ty	LAT3pt2_tz	LAT3pt3_tx	LAT3pt3_ty	LAT3pt3_tz
      0.46666667	     -0.31835130	      0.13483859	     -0.13483859	      0.31835130	     -0.06445966	      0.52094033	      0.23415909	     -0.23415909	     -0.52094033	      0.06445966	     99.87161837	     75.37250119	     -1.74308857	    -24.57452952	     27.49132646	      7.42342449	     -0.04814158	     -0.86938711	     -0.06723175	     -0.43469355	    -10.80524581	     -3.82150591	    -32.43003126	    -14.21392882	      7.08360005	     13.60264451	      8.30150238	    -27.02456012	     57.25724891	      8.53847841	     87.35378277	     68.85854216	     38.20682288	     -5.23485949	     91.61033652	     43.43533125	    -17.29497630	    -12.62726433	    -11.34690885	      5.01293325	      0.00080933	     -0.03075093	     -0.00480753	      0.01529966	     -0.01766815	     -0.01020367	      0.00700149	     -0.06525467	     -0.00064800	      0.00466423	     -0.18402207	      0.00024442	     -0.00089081	      0.00021883	      0.00009271	      0.00025653	      0.00010261	      0.00051307	      0.00032836	      0.00098509	      0.00055411	     -0.00157117	      0.00033499	      0.00040199	      0.00247055	      0.00866784	      0.00602981	     -0.00808161	      0.01951312	     -0.01850815	      0.00247055	      0.00866784	      0.00602981	      0.00054436	      0.01808942	     -0.00950532	      0.00391775	      0.00482008	      0.01589336	      0.00000000	      0.00759648	      0.00000000	     -0.00707665	     -0.03270332	     -0.00626260	      0.01627617	     -0.00057642	     -0.00504556	     -0.00087935	      0.01473952	     -0.00602981	      0.00242867	      0.02127181	     -0.01758693	     -0.00590418	      0.01277146	     -0.00540170	     -0.01231085	      0.02696663	     -0.03019090	     -0.02311425	      0.01427891	     -0.00724414	     -0.01532575	      0.03115399	     -0.03772816
      0.50000000	     -0.32014300	      0.13559746	     -0.13559746	      0.32014300	     -0.06482244	      0.52387220	      0.23547695	     -0.23547695	     -0.52387220	      0.06482244	     99.38076755	     75.79670006	     -1.73452161	    -22.32630161	     27.59197041	      6.11432364	     -0.02961892	     -0.84634210	     -0.04091420	     -0.42317105	    -10.51217872	     -4.27587291	    -31.52450078	    -15.91283666	      6.14076524	     13.63375185	      8.66577825	    -28.79041995	     57.06786712	      9.21672226	     87.40004924	     69.76313883	     38.09420563	     -4.49461457	     91.55991147	     43.77024151	    -16.36048739	    -12.62639800	    -12.59129401	      5.00690579	      0.00081266	     -0.03076246	     -0.00480939	      0.01519781	     -0.01769549	     -0.01028250	      0.00709822	     -0.06519213	     -0.00054254	      0.00454585	     -0.18403696	      0.00028644	     -0.00073372	      0.00017899	      0.00007856	      0.00026607	      0.00010643	      0.00053213	      0.00034056	      0.00102169	      0.00057470	     -0.00148370	      0.00032420	      0.00038904	      0.00248445	      0.00871663	      0.00606374	     -0.00812710	      0.01962294	     -0.01861232	      0.00248445	      0.00871663	      0.00606374	      0.00054742	      0.01819122	     -0.00955881	      0.00393390	      0.00484721	      0.01593321	      0.00000000	      0.00768282	      0.00000000	     -0.00711647	     -0.03288737	     -0.00633429	      0.01508263	     -0.00050443	     -0.00414754	     -0.00088430	      0.01482248	     -0.00606374	      0.00244234	      0.02139153	     -0.01768591	     -0.00593741	      0.01284334	     -0.00543210	     -0.01238014	      0.02711840	     -0.03036081	     -0.02324434	      0.01435928	     -0.00728491	     -0.01541201	      0.03132933	     -0.03794049
      0.53333333	     -0.31794186	      0.13466517	     -0.13466517	      0.31794186	     -0.06437676	      0.52027033	      0.23385793	     -0.23385793	     -0.52027033	      0.06437676	     99.98428860	     75.27556233	     -1.74505504	    -25.14071905	     27.51128100	      7.98460561	     -0.04714408	     -0.86148553	     -0.06579971	     -0.43074277	    -10.82401660	     -3.64555886	    -32.38668210	    -14.42238063	      6.99600411	     13.59352528	      8.39175987	    -27.45345109	     57.32982835	      8.59236234	     87.33849649	     68.96842357	     38.23640995	     -5.23411764	     91.34035795	     43.58580295	    -17.18932066	    -12.64499086	    -11.64641248	      5.01650670	      0.00080999	     -0.03075321	     -0.00480790	      0.01534214	     -0.01767357	     -0.01016916	      0.00696003	     -0.06528149	     -0.00069320	      0.00471514	     -0.18401554	      0.00022680	     -0.00095815	      0.00023607	      0.00009850	      0.00025990	      0.00010396	      0.00051980	      0.00033267	      0.00099802	      0.00056138	     -0.00157683	      0.00033569	      0.00040283	      0.00246737	      0.00865670	      0.00602205	     -0.00807122	      0.01948802	     -0.01848435	      0.00246737	      0.00865670	      0.00602205	      0.00054366	      0.01806615	     -0.00949309	      0.00391405	      0.00481388	      0.01588420	      0.00000000	      0.00757682	      0.00000000	     -0.00706754	     -0.03266126	     -0.00624628	      0.01656600	     -0.00059483	     -0.00528323	     -0.00087822	      0.01472057	     -0.00602205	      0.00242555	      0.02124445	     -0.01756431	     -0.00589659	      0.01275504	     -0.00539475	     -0.01229502	      0.02693195	     -0.03015207	     -0.02308453	      0.01426055	     -0.00723482	     -0.01530604	      0.03111393	     -0.03767963
      0.56666667	     -0.31959468	      0.13536522	     -0.13536522	      0.31959468	     -0.06471142	      0.52297494	      0.23507364	     -0.23507364	     -0.52297494	      0.06471142	     99.42035887	     75.66688090	     -1.73521261	    -23.24457300	     27.93948984	      8.69867498	     -0.00219059	     -0.77117424	     -0.00297667	     -0.38558712	     -9.70848668	     -5.09880669	    -31.18593656	    -18.48037665	      4.25211752	     13.64024188	     10.54099228	    -30.47675465	     56.14992373	     10.05122574	     87.63120037	     69.51484409	     38.56404755	     -3.85409574	     90.30753078	     43.91297693	    -15.25472665	    -12.80079130	    -13.32654027	      4.88420765	      0.00082415	     -0.03080229	     -0.00481581	      0.01539519	     -0.01778990	     -0.01012463	      0.00690727	     -0.06531560	     -0.00075072	      0.00478006	     -0.18400710	      0.00020471	     -0.00104384	      0.00025814	      0.00010563	      0.00029099	      0.00011640	      0.00058199	      0.00037247	      0.00111742	      0.00062855	     -0.00125992	      0.00029508	      0.00035409	      0.00248019	      0.00870170	      0.00605336	     -0.00811318	      0.01958933	     -0.01858044	      0.00248019	      0.00870170	      0.00605336	      0.00054648	      0.01816007	     -0.00954244	      0.00392896	      0.00483890	      0.01592106	      0.00000000	      0.00765634	      0.00000000	     -0.00710429	     -0.03283105	     -0.00631230	      0.01557833	     -0.00053361	     -0.00450538	     -0.00088278	      0.01479709	     -0.00605336	      0.00243816	      0.02135489	     -0.01765562	     -0.00592724	      0.01282134	     -0.00542280	     -0.01235893	      0.02707195	     -0.03030882	     -0.02320453	      0.01433468	     -0.00727243	     -0.01538561	      0.03127567	     -0.03787551
      0.60000000	     -0.31699630	      0.13426467	     -0.13426467	      0.31699630	     -0.06418530	      0.51872304	      0.23316244	     -0.23316244	     -0.51872304	      0.06418530	    100.24362577	     75.05169210	     -1.74958132	    -26.42057257	     27.54665086	      9.31327258	     -0.04775614	     -0.85173664	     -0.06667833	     -0.42586832	    -10.85700316	     -3.77394943	    -32.36942441	    -14.49580700	      6.97107622	     13.58316105	      8.38092050	    -27.63140291	     57.16603793	      8.49528476	     87.28345211	     69.01539611	     38.45232751	     -5.19579171	     91.34896009	     43.72278591	    -17.14180843	    -12.69005898	    -11.81097504	      5.01580779	      0.00081116	     -0.03075727	     -0.00480855	      0.01543993	     -0.01768318	     -0.01008573	      0.00686185	     -0.06534497	     -0.00080023	      0.00483605	     -0.18399973	      0.00018600	     -0.00111759	      0.00027726	      0.00011154	      0.00026391	      0.00010557	      0.00052783	      0.00033781	      0.00101343	      0.00057006	     -0.00158694	      0.00033691	      0.00040429	      0.00246003	      0.00863095	      0.00600414	     -0.00804722	      0.01943007	     -0.01842938	      0.00246003	      0.00863095	      0.00600414	      0.00054204	      0.01801242	     -0.00946486	      0.00390549	      0.00479956	      0.01586294	      0.00000000	      0.00753152	      0.00000000	     -0.00704653	     -0.03256412	     -0.00620866	      0.01720558	     -0.00063684	     -0.00583659	     -0.00087560	      0.01467679	     -0.00600414	      0.00241833	      0.02118127	     -0.01751208	     -0.00587905	      0.01271710	     -0.00537871	     -0.01225845	      0.02685185	     -0.03006240	     -0.02301587	      0.01421814	     -0.00721331	     -0.01526052	      0.03102139	     -0.03756757
      0.63333333	     -0.31735888	      0.13441824	     -0.13441824	      0.31735888	     -0.06425872	      0.51931635	      0.23342912	     -0.23342912	     -0.51931635	      0.06425872	    100.11684386	     75.13753531	     -1.74736856	    -26.00807107	     27.61320016	      9.31510648	     -0.04142039	     -0.83301842	     -0.05761662	     -0.41650921	    -10.81539185	     -4.00263457	    -31.80861871	    -15.38750174	      6.38893331	     13.59999616	      8.54136671	    -28.20128137	     57.21429772	      8.81622244	     87.36771661	     69.01578735	     38.17545357	     -4.85067774	     91.51195018	     43.82917141	    -17.07178781	    -12.67017047	    -11.95624923	      5.01094717	      0.00081336	     -0.03076489	     -0.00480978	      0.01544005	     -0.01770126	     -0.01008561	      0.00686172	     -0.06534505	     -0.00080038	      0.00483622	     -0.18399970	      0.00018594	     -0.00111781	      0.00027732	      0.00011155	      0.00027118	      0.00010847	      0.00054235	      0.00034711	      0.00104132	      0.00058574	     -0.00157378	      0.00033536	      0.00040243	      0.00246284	      0.00864082	      0.00601101	     -0.00805642	      0.01945229	     -0.01845045	      0.00246284	      0.00864082	      0.00601101	      0.00054266	      0.01803302	     -0.00947569	      0.00390878	      0.00480505	      0.01587111	      0.00000000	      0.00754888	      0.00000000	     -0.00705459	     -0.03260137	     -0.00622307	      0.01700186	     -0.00062324	     -0.00565577	     -0.00087661	      0.01469357	     -0.00601101	      0.00242110	      0.02120550	     -0.01753211	     -0.00588578	      0.01273165	     -0.00538486	     -0.01227247	      0.02688256	     -0.03009678	     -0.02304220	      0.01423440	     -0.00722156	     -0.01527798	      0.03105687	     -0.03761054
